<?xml version="1.0" standalone="no"?><!DOCTYPE svg PUBLIC "-//W3C//DTD SVG 1.1//EN" "http://www.w3.org/Graphics/SVG/1.1/DTD/svg11.dtd"><svg class="icon" width="200px" height="193.94px" viewBox="0 0 1056 1024" version="1.1" xmlns="http://www.w3.org/2000/svg"><path d="M12.8 601.6h992v51.2H12.8v-51.2z m0 0M12.8 902.4h992v51.2H12.8v-51.2zM12.8 307.2h992v51.2H12.8z" fill="#101010" /><path d="M409.6 921.6H147.2s-6.4 0-6.4-6.4l-6.4-6.4v-179.2c0-6.4 6.4-12.8 12.8-12.8h262.4c6.4 0 12.8 6.4 12.8 12.8v179.2c0 6.4-6.4 12.8-12.8 12.8z m-243.2-32H384v-140.8H166.4v140.8z m454.4 12.8M838.4 921.6H576s-6.4 0-6.4-6.4l-6.4-6.4v-179.2c0-6.4 6.4-12.8 12.8-12.8h262.4c6.4 0 12.8 6.4 12.8 12.8v179.2c0 6.4-6.4 12.8-12.8 12.8z m-236.8-32h217.6v-140.8H601.6v140.8z m448 12.8M416 627.2H153.6s-6.4 0-6.4-6.4l-6.4-6.4V435.2c0-6.4 6.4-12.8 12.8-12.8h262.4c6.4 0 12.8 6.4 12.8 12.8v179.2c0 6.4-6.4 12.8-12.8 12.8z m-236.8-32h217.6V454.4H179.2v140.8z m448 12.8M844.8 627.2H582.4s-6.4 0-6.4-6.4l-6.4-6.4V435.2c0-6.4 6.4-12.8 12.8-12.8h262.4c6.4 0 12.8 6.4 12.8 12.8v179.2c0 6.4-6.4 12.8-12.8 12.8z m-236.8-32h217.6V454.4H608v140.8z m448 12.8M416 326.4H153.6s-6.4 0-6.4-6.4l-6.4-6.4V134.4c0-6.4 6.4-12.8 12.8-12.8h262.4c6.4 0 12.8 6.4 12.8 12.8v179.2c0 6.4-6.4 12.8-12.8 12.8z m-236.8-32h217.6V153.6H179.2v140.8z m448 12.8M844.8 326.4H582.4S576 326.4 576 320l-6.4-6.4V134.4c0-6.4 6.4-12.8 12.8-12.8h262.4c6.4 0 12.8 6.4 12.8 12.8v179.2c0 6.4-6.4 12.8-12.8 12.8z m-236.8-32h217.6V153.6H608v140.8z m448 12.8" fill="#101010" /></svg>